<?xml version="1.0" encoding="UTF-8"?>
<svg id="_Слой_1" data-name="Слой 1" xmlns="http://www.w3.org/2000/svg" version="1.1" viewBox="0 0 850 280">
  <path d="M579.5,11.3h237.9c5.2,0,9.4,4.2,9.4,9.4v237.9c0,5.2-4.2,9.4-9.4,9.4h-237.9c-5.2,0-9.4-4.2-9.4-9.4v-23.7h73.3s33.6,0,33.6,0c2.6,0,4-1.5,4-4.4v-13.3c0-2.9-1.3-4.4-4-4.4h-11.9s-21.7,0-21.7,0h-73.3s-33.4,0-33.4,0c-2.6,0-4-1.5-4-4.4v-13.3c0-2.9,1.3-4.4,4-4.4h11.9s4.7,0,4.7,0c.3,0,.6,0,.9,0h172c0,0,11.2,0,11.2,0,10.5,0,18.8-2.9,24.9-8.6,6.1-5.7,10.6-14.1,13.5-25.1l24.3-97c.7-2.9-.7-4.4-4-4.4h-16.7c-2.8,0-4.4,1.4-5,4.2l-16.9,73.4h-14v-50.5c0-4.2-.4-7.9-1.2-11.3v-.5h-.1c-1.3-4.9-3.4-9-6.5-12.2-5.2-5.6-13-8.4-23.2-8.4h-5.8c-11,0-18.8,4.2-23.3,12.7-5-8.5-13.3-12.7-24.9-12.7h-5.6c-4.9,0-9.2,1-13,3-3.8,2-6.5,4.6-8.1,7.8h-.8v-6.6c0-2.8-1.4-4.2-4.2-4.2h-16.9c-2.8,0-4.2,1.4-4.2,4.2v93.1c0,2.8,1.4,4.2,4.2,4.2h16.9c2.8,0,4.2-1.4,4.2-4.2v-60.3c0-10.1,4.6-15.1,13.7-15.1h6.2c4.2,0,7.3.9,9,2.7,1.8,1.8,2.7,4.8,2.7,9v63.6c0,2.8,1.4,4.2,4.2,4.2h16.7c2.9,0,4.4-1.4,4.4-4.2v-60.1c0-10.2,4.6-15.3,13.7-15.3h5c4.2,0,7.2.9,8.9,2.7,1.7,1.8,2.6,4.8,2.6,9v63.6c0,2.8,1.4,4.2,4.2,4.2h16.9c.1,0,.2,0,.3,0h13.1c-1.6,6.6-3.9,11.1-6.9,13.4-3,2.3-8.7,3.5-17,3.5h-158.7s0-148,0-148c0-5.2,4.2-9.4,9.4-9.4Z" fill="#fff" fill-rule="evenodd" stroke-width="0"/>
  <path d="M485.4,213.1c-2.6,0-4-1.5-4-4.4v-13.3c0-2.9,1.3-4.4,4-4.4h11.9s5.7,0,5.7,0h0s11.9,0,11.9,0c2.7,0,4,1.5,4,4.4v13.3c0,2.9-1.3,4.4-4,4.4h-29.4Z" fill="#fff" fill-rule="evenodd" stroke-width="0"/>
  <g>
    <path d="M42,178.9h-11.4c-1.9,0-2.8-.9-2.8-2.8v-62.7c0-1.9.9-2.8,2.8-2.8h11.4c1.9,0,2.8.9,2.8,2.8v4.4h.5c1.1-2.1,2.9-3.9,5.4-5.2,2.5-1.3,5.5-2,8.8-2h3.7c7.8,0,13.3,2.9,16.7,8.6,3-5.7,8.3-8.6,15.7-8.6h3.9c6.9,0,12.1,1.9,15.6,5.6,3.5,3.7,5.3,9.2,5.3,16.2v43.7c0,1.9-.9,2.8-2.8,2.8h-11.4c-1.9,0-2.8-.9-2.8-2.8v-42.8c0-2.9-.6-4.9-1.7-6.1-1.2-1.2-3.2-1.8-6-1.8h-3.3c-6.2,0-9.2,3.4-9.2,10.3v40.4c0,1.9-1,2.8-2.9,2.8h-11.2c-1.9,0-2.8-.9-2.8-2.8v-42.8c0-2.9-.6-4.9-1.8-6.1s-3.2-1.8-6.1-1.8h-4.2c-6.2,0-9.2,3.4-9.2,10.2v40.6c0,1.9-.9,2.8-2.8,2.8h0ZM167.4,178.9h-11.9c-7.1,0-12.5-1.9-16.3-5.6-3.8-3.7-5.8-9.2-5.8-16.2v-24.6c0-7.1,1.9-12.5,5.8-16.2,3.8-3.7,9.3-5.6,16.3-5.6h11.9c7,0,12.4,1.9,16.3,5.7,3.9,3.8,5.8,9.2,5.8,16.1v24.6c0,7-1.9,12.3-5.8,16.1-3.9,3.8-9.3,5.7-16.3,5.7h0ZM158,164.3h6.8c2.9,0,4.9-.6,6.1-1.7,1.2-1.2,1.8-3.2,1.8-6v-23.6c0-2.9-.6-4.9-1.8-6-1.2-1.2-3.2-1.7-6.1-1.7h-6.8c-2.9,0-4.9.6-6,1.7-1.2,1.2-1.7,3.2-1.7,6v23.6c0,2.9.6,4.9,1.7,6,1.2,1.2,3.2,1.7,6,1.7h0ZM199.9,110.6h11.8c1.8,0,2.9.9,3.2,2.8l11.5,50.3h.9l11.2-50.3c.4-1.9,1.5-2.8,3.3-2.8h11.8c1.9,0,2.5.9,2,2.8l-16.9,62.5c-.4,2-1.6,2.9-3.6,2.9h-17c-1.9,0-3.1-1-3.6-2.9l-16.7-62.5c-.5-1.9.1-2.8,2-2.8h0ZM315.9,178.9h-29.6c-7.1,0-12.5-1.9-16.3-5.6-3.8-3.7-5.8-9.2-5.8-16.2v-24.6c0-7.1,1.9-12.5,5.8-16.2,3.8-3.7,9.3-5.6,16.3-5.6h10.6c7.1,0,12.5,1.9,16.3,5.6,3.8,3.7,5.8,9.2,5.8,16.2v17c0,1.9-.9,2.8-2.8,2.8h-33.6c-1.1,0-1.6.5-1.6,1.5v2.9c0,2.8.6,4.8,1.8,6s3.2,1.8,6.1,1.8h27c1.9,0,2.8,1,2.8,2.9v8.8c0,1-.2,1.7-.6,2.1-.4.4-1.1.6-2.2.6h0ZM282.5,140.9h18.2c1,0,1.5-.5,1.5-1.5v-6.4c0-2.9-.6-4.9-1.7-6-1.2-1.2-3.2-1.7-6-1.7h-5.6c-2.9,0-4.9.6-6,1.7-1.2,1.2-1.7,3.2-1.7,6v6.4c0,1,.5,1.5,1.5,1.5Z" fill="#fff" fill-rule="evenodd" stroke-width="0"/>
    <path d="M342.8,201.6h-8.6c-1.8,0-2.7-1-2.7-2.9v-9c0-2,.9-2.9,2.7-2.9h2.8c5.6,0,9.4-.8,11.4-2.3,2-1.6,3.5-4.6,4.6-9h-7.1c-1.7,0-2.8-.9-3.3-2.8l-15.7-59.1c-.5-1.9.1-2.8,2-2.8h11.9c1.8,0,2.9.9,3.3,2.8l11.5,49.4h.5l11.4-49.4c.4-1.9,1.5-2.8,3.3-2.8h11.2c2.2,0,3.1,1,2.7,2.9l-16.3,65.3c-2,7.4-5,13-9.1,16.9-4.1,3.8-9.7,5.8-16.7,5.8h0ZM427.4,178.9h-11.9c-7.1,0-12.5-1.9-16.3-5.6-3.8-3.7-5.8-9.2-5.8-16.2v-24.6c0-7.1,1.9-12.5,5.8-16.2,3.8-3.7,9.3-5.6,16.3-5.6h11.9c7,0,12.4,1.9,16.3,5.7,3.9,3.8,5.8,9.2,5.8,16.1v24.6c0,7-1.9,12.3-5.8,16.1s-9.3,5.7-16.3,5.7h0ZM418.1,164.3h6.8c2.9,0,4.9-.6,6.1-1.7,1.2-1.2,1.8-3.2,1.8-6v-23.6c0-2.9-.6-4.9-1.8-6-1.2-1.2-3.2-1.7-6.1-1.7h-6.8c-2.9,0-4.9.6-6,1.7-1.2,1.2-1.7,3.2-1.7,6v23.6c0,2.9.6,4.9,1.7,6,1.2,1.2,3.2,1.7,6,1.7h0ZM487.5,178.9h-4.4c-6.9,0-12.1-1.9-15.6-5.6s-5.3-9.2-5.3-16.2v-43.7c0-1.9.9-2.8,2.8-2.8h11.4c1.9,0,2.8.9,2.8,2.8v42.8c0,2.9.6,4.9,1.8,6.1s3.2,1.8,6,1.8h5c6.2,0,9.2-3.4,9.2-10.2v-40.6c0-1.9.9-2.8,2.8-2.8h11.2c2,0,2.9.9,2.9,2.8v62.7c0,1.9-1,2.8-2.9,2.8h-11.2c-1.9,0-2.8-.9-2.8-2.8v-4.4h-.5c-1,2.4-2.7,4.2-5.2,5.4s-5.1,1.8-7.9,1.8Z" fill="#fff" fill-rule="evenodd" stroke-width="0"/>
  </g>
  <path d="M37.6,212.7c-6.6,0-9.9-1.5-9.9-4.4v-13.3c0-2.9,3.3-4.4,9.9-4.4h29.6s14.1,0,14.1,0h0s29.6,0,29.6,0c6.6,0,9.9,1.5,9.9,4.4v13.3c0,2.9-3.3,4.4-9.9,4.4H37.6Z" fill="#fff" fill-rule="evenodd" stroke-width="0"/>
  <path d="M23.8,234.2h509v24c0,5.5-4.5,10-10,10H33.8c-5.5,0-10-4.5-10-10v-24h0Z" fill="#fff" stroke-width="0"/>
  <g>
    <path d="M129.8,195h5.9v.6c-1.7.2-2,.3-2,2.3v3.8c.4,0,.9-.4,1.6-1,1.2-1.2,2.7-2.7,3.7-3.8.7-.7.6-1-.4-1.2h-.6v-.7h5.3v.6c-1.6.2-2.2.3-3.7,1.8-.7.6-2.4,2.3-3.8,3.7,1.7,2,4.1,4.8,5.3,6,1.1,1.2,1.4,1.4,2.8,1.5v.6h-3.5c-1.7-1.9-3.5-4-5.5-6.4-.5-.6-.9-.7-1.2-.6v4.2c0,1.9.2,2.1,2,2.2v.6h-5.9v-.6c1.8-.2,2-.3,2-2.2v-8.6c0-2-.2-2.1-2-2.3v-.6h0Z" fill="#fff" stroke-width="0"/>
    <path d="M159,195.6c-1.4,0-1.9.4-1.9,1.5v5.9c0,2.2-.3,4-1.5,5.3-1,1.1-2.5,1.4-4,1.4s-2.6-.3-3.6-1c-1.3-1-2-2.5-2-5.1v-5.6c0-2-.2-2.1-1.9-2.3v-.6h5.8v.6c-1.8.1-1.9.3-1.9,2.3v5.5c0,3.2,1.5,5,4.2,5s4.1-1.9,4.1-5.6v-2.2c0-2,0-2.9-.1-3.5,0-1-.6-1.4-2.2-1.5v-.6h5.3v.6h-.3Z" fill="#fff" stroke-width="0"/>
    <path d="M171.3,205.6c-.1.7-.8,3-1,3.7h-10.2v-.6c2-.2,2.2-.3,2.2-2.2v-8.7c0-1.9-.2-2-2-2.2v-.6h5.9v.6c-1.8.2-2,.3-2,2.2v9c0,1.3.2,1.7,1.4,1.7h1.7c1.1,0,1.5-.1,2-.7.6-.6,1-1.5,1.3-2.3l.7.2h0Z" fill="#fff" stroke-width="0"/>
    <path d="M178.5,195.6c-1.7.2-1.9.3-1.9,2.2v8.1c0,2.9-.5,4.4-1.9,5.7-.7.7-1.5,1-2,1.3l-.4-.7c1.3-.6,2-1.6,2.2-2.9.2-1.1.2-2.3.2-4.2v-7.4c0-1.8-.2-2-2-2.2v-.6h5.8v.6h0Z" fill="#fff" stroke-width="0"/>
    <path d="M191.7,205.8c-.1.6-.7,2.8-.9,3.5h-10.7v-.6c2-.2,2.2-.4,2.2-2.2v-8.7c0-2-.2-2.1-1.9-2.2v-.6h9.9c0,.5.1,2.2.2,3.4h-.7c-.2-.6-.4-1.1-.7-1.6-.4-.7-.9-.9-2.2-.9h-2.1q-.7,0-.7.7v4.9h2.4c1.6,0,1.8-.3,2-1.8h.7v4.5h-.7c-.3-1.6-.5-1.8-2-1.8h-2.4v4.4c0,1.5.5,1.7,1.6,1.7h2c1.3,0,1.6-.2,2-.8.4-.5.9-1.4,1.2-2l.7.2h0Z" fill="#fff" stroke-width="0"/>
    <path d="M204.9,198.4c-.2-.7-.5-1.4-.7-1.8-.4-.6-.6-.7-1.8-.7h-2.2v10.7c0,1.7.2,2,2.3,2.1v.6h-6.4v-.6c2-.1,2.2-.4,2.2-2.1v-10.7h-2c-1.2,0-1.6.1-1.9.8-.3.4-.4,1-.7,1.8h-.7c.1-1.3.3-2.7.3-4h.5c.3.5.6.5,1.2.5h8.7c.6,0,.8,0,1.1-.5h.5c0,1,0,2.6.2,3.9h-.7,0Z" fill="#fff" stroke-width="0"/>
    <path d="M222.4,195.6c-1.4,0-1.9.4-1.9,1.5v5.9c0,2.2-.3,4-1.5,5.3-1,1.1-2.5,1.4-4,1.4s-2.6-.3-3.6-1c-1.3-1-2-2.5-2-5.1v-5.6c0-2-.2-2.1-1.9-2.3v-.6h5.8v.6c-1.8.1-1.9.3-1.9,2.3v5.5c0,3.2,1.5,5,4.2,5s4.1-1.9,4.1-5.6v-2.2c0-2,0-2.9-.1-3.5,0-1-.6-1.4-2.2-1.5v-.6h5.3v.6h-.3Z" fill="#fff" stroke-width="0"/>
    <path d="M231.2,198.3c-.4-1.5-1-2.9-3.1-2.9s-2.3,1.3-2.3,2.4,1,2.3,2.8,3.2c2.6,1.4,3.8,2.4,3.8,4.5s-2,4.1-4.8,4.1-2.5-.4-3.4-.7c-.2-.6-.4-2.1-.6-3.3l.7-.2c.4,1.5,1.4,3.4,3.7,3.4s2.6-1.1,2.6-2.5-.9-2.4-2.8-3.4c-2.3-1.3-3.6-2.3-3.6-4.4s1.6-3.8,4.5-3.8,2.4.3,2.9.4c0,.8.2,1.7.4,3.1h-.8Z" fill="#fff" stroke-width="0"/>
    <path d="M240,195c1.6,0,2.8.3,3.7.9.9.6,1.5,1.7,1.5,3.1,0,3.2-2.8,4.5-4.8,4.5s-.5,0-.6,0l-1.5-.4v3.4c0,1.8.2,1.9,2.2,2.1v.6h-6.1v-.6c1.9-.2,2-.3,2-2.2v-8.7c0-2-.2-2-2-2.2v-.6h5.7,0ZM238.2,202.4c.3.1.9.3,1.6.3,1.5,0,3.3-.7,3.3-3.5s-1.6-3.4-3.4-3.4-1.1.1-1.2.3c-.2.2-.2.4-.2,1v5.3h-.1Z" fill="#fff" stroke-width="0"/>
    <path d="M253.4,209.3v-.6c1.4-.2,1.6-.4,1.3-1.2-.3-.9-.7-2-1.2-3.3h-4.8c-.4,1-.7,1.8-1,2.8-.5,1.4-.2,1.6,1.6,1.8v.6h-5.1v-.6c1.4-.2,1.7-.3,2.5-2.3l4.6-11.6h.7c1.4,3.6,2.9,7.8,4.3,11.6.7,1.9.9,2.1,2.5,2.3v.6h-5.4ZM251.2,197.6c-.7,1.9-1.5,3.9-2.1,5.6h4.1l-2-5.6Z" fill="#fff" stroke-width="0"/>
    <path d="M270.8,205.6c-.1.7-.8,3-1,3.7h-10.2v-.6c2-.2,2.2-.3,2.2-2.2v-8.7c0-1.9-.2-2-2-2.2v-.6h5.9v.6c-1.8.2-2,.3-2,2.2v9c0,1.3.2,1.7,1.4,1.7h1.7c1.1,0,1.5-.1,2-.7.6-.6,1-1.5,1.3-2.3l.7.2h0Z" fill="#fff" stroke-width="0"/>
    <path d="M284,195.6c-1.5.2-1.8.4-2.6,2.4-.6,1.5-3.6,8.8-4.7,11.6h-.7c-1.3-3.5-3.2-8.7-4.4-11.9-.6-1.6-1-1.8-2.3-2v-.6h5.6v.6c-1.6.2-1.7.4-1.4,1.3.5,1.6,2.2,6,3.5,9.6,1.2-2.8,2.6-6.4,3.7-9.2.5-1.3.2-1.5-1.6-1.7v-.6h5.1v.6h-.2Z" fill="#fff" stroke-width="0"/>
    <path d="M296.3,205.8c-.1.6-.7,2.8-.9,3.5h-10.7v-.6c2-.2,2.2-.4,2.2-2.2v-8.7c0-2-.2-2.1-1.9-2.2v-.6h9.9c0,.5.1,2.2.2,3.4h-.7c-.2-.6-.4-1.1-.7-1.6-.4-.7-.9-.9-2.2-.9h-2.1q-.7,0-.7.7v4.9h2.4c1.7,0,1.8-.3,2-1.8h.7v4.5h-.7c-.3-1.6-.5-1.8-2-1.8h-2.4v4.4c0,1.5.5,1.7,1.6,1.7h2c1.3,0,1.6-.2,2-.8.4-.5.9-1.4,1.2-2l.7.2h0Z" fill="#fff" stroke-width="0"/>
    <path d="M308.9,205.6c-.1.7-.8,3-1,3.7h-10.2v-.6c2-.2,2.2-.3,2.2-2.2v-8.7c0-1.9-.2-2-2-2.2v-.6h5.9v.6c-1.8.2-2,.3-2,2.2v9c0,1.3.2,1.7,1.4,1.7h1.7c1.1,0,1.5-.1,2-.7.6-.6,1-1.5,1.3-2.3l.7.2h0Z" fill="#fff" stroke-width="0"/>
    <path d="M324.5,195.6c-1.4,0-1.9.4-1.9,1.5v5.9c0,2.2-.3,4-1.5,5.3-1,1.1-2.5,1.4-4,1.4s-2.6-.3-3.6-1c-1.3-1-2-2.5-2-5.1v-5.6c0-2-.2-2.1-1.9-2.3v-.6h5.8v.6c-1.8.1-1.9.3-1.9,2.3v5.5c0,3.2,1.5,5,4.2,5s4.1-1.9,4.1-5.6v-2.2c0-2,0-2.9-.1-3.5,0-1-.6-1.4-2.2-1.5v-.6h5.3v.6h-.3Z" fill="#fff" stroke-width="0"/>
  </g>
  <g>
    <path d="M385.7,208.9v-.6c1.8-.2,1.9-.3,1.8-2.7v-9c-1.8,4-4.7,10.3-5.5,12.3h-.6c-.7-2-3.2-8.1-4.9-12-.4,7.7-.4,9.4-.4,9.9,0,1.2.6,1.4,2.1,1.6v.6h-5.2v-.6c1.3-.1,1.8-.4,2-1.6.1-1,.2-1.8.7-9.8,0-1.1-.1-1.5-2.1-1.7v-.6h3.8l4.9,11.2,5.2-11.2h3.9v.6c-1.9.2-2.1.4-2.1,2v8.4c.2,2.4.2,2.5,2.2,2.7v.6h-5.9.1Z" fill="#fff" stroke-width="0"/>
    <path d="M408.4,195.2c-1.4,0-1.9.4-1.9,1.5v5.9c0,2.2-.3,4-1.5,5.3-1,1.1-2.5,1.4-4,1.4s-2.6-.3-3.6-1c-1.3-1-2-2.5-2-5.1v-5.6c0-2-.2-2.1-1.9-2.3v-.6h5.8v.6c-1.8.1-1.9.3-1.9,2.3v5.5c0,3.2,1.5,5,4.2,5s4.1-1.9,4.1-5.6v-2.2c0-2,0-2.9-.1-3.5,0-1-.6-1.4-2.2-1.5v-.6h5.3v.6h-.3Z" fill="#fff" stroke-width="0"/>
    <path d="M424.7,195.2c-1.4,0-1.9.4-1.9,1.5v5.9c0,2.2-.3,4-1.5,5.3-1,1.1-2.5,1.4-4,1.4s-2.6-.3-3.6-1c-1.3-1-2-2.5-2-5.1v-5.6c0-2-.2-2.1-1.9-2.3v-.6h5.8v.6c-1.8.1-1.9.3-1.9,2.3v5.5c0,3.2,1.5,5,4.2,5s4.1-1.9,4.1-5.6v-2.2c0-2,0-2.9-.1-3.5,0-1-.6-1.4-2.2-1.5v-.6h5.3v.6h-.3Z" fill="#fff" stroke-width="0"/>
    <path d="M438.1,198c-.2-.7-.5-1.4-.7-1.8-.4-.6-.6-.7-1.8-.7h-2.2v10.7c0,1.7.2,2,2.3,2.1v.6h-6.4v-.6c2-.1,2.2-.4,2.2-2.1v-10.7h-2c-1.2,0-1.6.1-1.9.8-.3.4-.4,1-.7,1.8h-.7c.1-1.3.3-2.7.3-4h.5c.3.5.6.5,1.2.5h8.7c.6,0,.8,0,1.1-.5h.5c0,1,0,2.6.2,3.9h-.7.1Z" fill="#fff" stroke-width="0"/>
    <path d="M452.6,198c-.2-.7-.5-1.4-.7-1.8-.4-.6-.6-.7-1.8-.7h-2.2v10.7c0,1.7.2,2,2.3,2.1v.6h-6.4v-.6c2-.1,2.2-.4,2.2-2.1v-10.7h-2c-1.2,0-1.6.1-1.9.8-.3.4-.4,1-.7,1.8h-.7c.1-1.3.3-2.7.3-4h.5c.3.5.6.5,1.2.5h8.7c.6,0,.8,0,1.1-.5h.5c0,1,0,2.6.2,3.9h-.7.1Z" fill="#fff" stroke-width="0"/>
    <path d="M462.5,194.3c3.8,0,7.1,2.9,7.1,7.3s-3.2,7.7-7.3,7.7-7.3-3.2-7.3-7.3,2.8-7.6,7.4-7.6h0ZM462,195.1c-2.5,0-4.7,2.1-4.7,6.2s2.2,7.1,5.4,7.1,4.7-2,4.7-6.2-2.4-7.1-5.3-7.1h-.1Z" fill="#fff" stroke-width="0"/>
  </g>
</svg>