<?xml version="1.0" encoding="UTF-8"?>
<svg id="_Слой_1" data-name="Слой 1" xmlns="http://www.w3.org/2000/svg" version="1.1" viewBox="0 0 100 60">
  <defs>
    <style>
      .cls-1, .cls-2, .cls-3, .cls-4 {
        stroke-width: 0px;
      }

      .cls-1, .cls-3 {
        fill: #ffffff;
      }

      .cls-2, .cls-4 {
        fill: #fff;
      }

      .cls-3, .cls-4 {
        fill-rule: evenodd;
      }
    </style>
  </defs>
  <path class="cls-1" d="M14.19,35.85h.71v.07c-.2.02-.24.03-.24.26v.44s.11-.05.19-.11c.14-.14.32-.31.44-.44.08-.08.07-.11-.05-.14h-.07v-.08h.64v.07c-.19.02-.26.03-.44.21-.08.07-.29.26-.46.42.2.23.49.55.64.69.13.14.17.16.34.17v.07h-.42c-.2-.22-.42-.46-.66-.73-.06-.07-.11-.08-.14-.07v.48c0,.22.02.24.24.25v.07h-.71v-.07c.22-.02.24-.03.24-.25v-.98c0-.23-.02-.24-.24-.26v-.07h0Z"/>
  <path class="cls-1" d="M17.7,35.92c-.17,0-.23.05-.23.17v.68c0,.25-.04.46-.18.61-.12.13-.3.16-.48.16s-.31-.03-.43-.11c-.16-.11-.24-.29-.24-.58v-.64c0-.23-.02-.24-.23-.26v-.07h.7v.07c-.22.01-.23.03-.23.26v.63c0,.37.18.57.5.57s.49-.22.49-.64v-.25c0-.23,0-.33-.01-.4,0-.11-.07-.16-.26-.17v-.07h.64v.07s-.04-.01-.04-.01Z"/>
  <path class="cls-1" d="M19.18,37.06c-.01.08-.1.34-.12.42h-1.23v-.07c.24-.02.26-.03.26-.25v-1c0-.22-.02-.23-.24-.25v-.07h.71v.07c-.22.02-.24.03-.24.25v1.03c0,.15.02.19.17.19h.2c.13,0,.18-.01.24-.08.07-.07.12-.17.16-.26l.08.02s0-.01,0-.01Z"/>
  <path class="cls-1" d="M20.05,35.92c-.2.02-.23.03-.23.25v.93c0,.33-.06.5-.23.65-.08.08-.18.11-.24.15l-.05-.08c.16-.07.24-.18.26-.33.02-.13.02-.26.02-.48v-.85c0-.21-.02-.23-.24-.25v-.07h.7s0,.08,0,.08Z"/>
  <path class="cls-1" d="M21.63,37.08c-.01.07-.08.32-.11.4h-1.29v-.07c.24-.02.26-.05.26-.25v-1c0-.23-.02-.24-.23-.25v-.07h1.19c0,.06.01.25.02.39h-.08c-.02-.07-.05-.13-.08-.18-.05-.08-.11-.1-.26-.1h-.25c-.06,0-.08.03-.08.08v.56h.29c.19,0,.22-.03.24-.21h.08v.52h-.08c-.04-.18-.06-.21-.24-.21h-.29v.5c0,.17.06.19.19.19h.24c.16,0,.19-.02.24-.09.05-.06.11-.16.14-.23l.08.02s.01-.01.01-.01Z"/>
  <path class="cls-1" d="M23.22,36.24c-.02-.08-.06-.16-.08-.21-.05-.07-.07-.08-.22-.08h-.26v1.23c0,.19.02.23.28.24v.07h-.77v-.07c.24-.01.26-.05.26-.24v-1.23h-.24c-.14,0-.19.01-.23.09-.04.05-.05.11-.08.21h-.08c.01-.15.04-.31.04-.46h.06c.04.06.07.06.14.06h1.05c.07,0,.1,0,.13-.06h.06c0,.11,0,.3.02.45h-.08.01Z"/>
  <path class="cls-1" d="M25.32,35.92c-.17,0-.23.05-.23.17v.68c0,.25-.04.46-.18.61-.12.13-.3.16-.48.16s-.31-.03-.43-.11c-.16-.11-.24-.29-.24-.58v-.64c0-.23-.02-.24-.23-.26v-.07h.7v.07c-.22.01-.23.03-.23.26v.63c0,.37.18.57.5.57s.49-.22.49-.64v-.25c0-.23,0-.33-.01-.4,0-.11-.07-.16-.26-.17v-.07h.64v.07s-.04-.01-.04-.01Z"/>
  <path class="cls-1" d="M26.38,36.23c-.05-.17-.12-.33-.37-.33s-.28.15-.28.27.12.26.34.37c.31.16.46.27.46.52s-.24.47-.58.47-.3-.05-.41-.08c-.02-.07-.05-.24-.07-.38l.08-.02c.05.17.17.39.44.39s.31-.13.31-.29-.11-.27-.34-.39c-.28-.15-.43-.26-.43-.5s.19-.44.54-.44.29.03.35.05c0,.09.02.19.05.35h-.08s-.01.01-.01.01Z"/>
  <path class="cls-1" d="M27.44,35.85c.19,0,.34.03.44.1.11.07.18.19.18.35,0,.37-.34.52-.58.52s-.06,0-.07,0l-.18-.05v.39c0,.21.02.22.26.24v.07h-.73v-.07c.23-.02.24-.03.24-.25v-1c0-.23-.02-.23-.24-.25v-.07h.68s-.01.01-.01.01ZM27.22,36.69s.11.03.19.03c.18,0,.4-.08.4-.4s-.19-.39-.41-.39-.13.01-.14.03c-.02.02-.02.05-.02.11v.61s-.01,0-.01,0Z"/>
  <path class="cls-1" d="M29.05,37.48v-.07c.17-.02.19-.05.16-.14-.04-.1-.08-.23-.14-.38h-.58c-.05.11-.08.21-.12.32-.06.16-.02.18.19.21v.07h-.61v-.07c.17-.02.2-.03.3-.26l.55-1.33h.08c.17.41.35.89.52,1.33.08.22.11.24.3.26v.07h-.65ZM28.78,36.15c-.08.22-.18.45-.25.64h.49l-.24-.64Z"/>
  <path class="cls-1" d="M31.14,37.06c-.01.08-.1.34-.12.42h-1.23v-.07c.24-.02.26-.03.26-.25v-1c0-.22-.02-.23-.24-.25v-.07h.71v.07c-.22.02-.24.03-.24.25v1.03c0,.15.02.19.17.19h.2c.13,0,.18-.01.24-.08.07-.07.12-.17.16-.26l.08.02h0s0-.01,0-.01Z"/>
  <path class="cls-1" d="M32.72,35.92c-.18.02-.22.05-.31.27-.07.17-.43,1.01-.56,1.33h-.08c-.16-.4-.38-1-.53-1.36-.07-.18-.12-.21-.28-.23v-.07h.67v.07c-.19.02-.2.05-.17.15.06.18.26.69.42,1.1.14-.32.31-.73.44-1.05.06-.15.02-.17-.19-.19v-.07h.61v.07h-.02s0-.01,0-.01Z"/>
  <path class="cls-1" d="M34.2,37.08c-.01.07-.08.32-.11.4h-1.29v-.07c.24-.02.26-.05.26-.25v-1c0-.23-.02-.24-.23-.25v-.07h1.19c0,.06.01.25.02.39h-.08c-.02-.07-.05-.13-.08-.18-.05-.08-.11-.1-.26-.1h-.25c-.06,0-.08.03-.08.08v.56h.29c.2,0,.22-.03.24-.21h.08v.52h-.08c-.04-.18-.06-.21-.24-.21h-.29v.5c0,.17.06.19.19.19h.24c.16,0,.19-.02.24-.09.05-.06.11-.16.14-.23l.08.02h.01s0-.01,0-.01Z"/>
  <path class="cls-1" d="M35.71,37.06c-.01.08-.1.34-.12.42h-1.23v-.07c.24-.02.26-.03.26-.25v-1c0-.22-.02-.23-.24-.25v-.07h.71v.07c-.22.02-.24.03-.24.25v1.03c0,.15.02.19.17.19h.2c.13,0,.18-.01.24-.08.07-.07.12-.17.16-.26l.08.02h0s0-.01,0-.01Z"/>
  <path class="cls-1" d="M37.59,35.92c-.17,0-.23.05-.23.17v.68c0,.25-.04.46-.18.61-.12.13-.3.16-.48.16s-.31-.03-.43-.11c-.16-.11-.24-.29-.24-.58v-.64c0-.23-.02-.24-.23-.26v-.07h.7v.07c-.22.01-.23.03-.23.26v.63c0,.37.18.57.5.57s.49-.22.49-.64v-.25c0-.23,0-.33-.01-.4,0-.11-.07-.16-.26-.17v-.07h.64v.07h-.04s0-.01,0-.01Z"/>
  <path class="cls-2" d="M44.73,37.69v-.07c.23-.02.24-.03.23-.31v-1.03c-.23.46-.6,1.18-.71,1.41h-.08c-.09-.23-.41-.93-.63-1.37-.05.88-.05,1.08-.05,1.13,0,.14.08.16.27.18v.07h-.67v-.07c.17-.01.23-.05.26-.18.01-.11.03-.21.09-1.12,0-.13-.01-.17-.27-.19v-.07h.49l.63,1.28.67-1.28h.5v.07c-.24.02-.27.05-.27.23v.96c.03.27.03.29.28.31v.07h-.76s.01-.01.01-.01Z"/>
  <path class="cls-2" d="M47.64,36.12c-.18,0-.24.05-.24.17v.68c0,.25-.04.46-.19.61-.13.13-.32.16-.51.16s-.33-.03-.46-.11c-.17-.11-.26-.29-.26-.58v-.64c0-.23-.03-.24-.24-.26v-.07h.74v.07c-.23.01-.24.03-.24.26v.63c0,.37.19.57.54.57s.53-.22.53-.64v-.25c0-.23,0-.33-.01-.4,0-.11-.08-.16-.28-.17v-.07h.68v.07s-.04-.01-.04-.01Z"/>
  <path class="cls-2" d="M49.73,36.12c-.18,0-.24.05-.24.17v.68c0,.25-.04.46-.19.61-.13.13-.32.16-.51.16s-.33-.03-.46-.11c-.17-.11-.26-.29-.26-.58v-.64c0-.23-.03-.24-.24-.26v-.07h.74v.07c-.23.01-.24.03-.24.26v.63c0,.37.19.57.54.57s.53-.22.53-.64v-.25c0-.23,0-.33-.01-.4,0-.11-.08-.16-.28-.17v-.07h.68v.07s-.04-.01-.04-.01Z"/>
  <path class="cls-2" d="M51.45,36.44c-.03-.08-.06-.16-.09-.21-.05-.07-.08-.08-.23-.08h-.28v1.23c0,.19.03.23.29.24v.07h-.82v-.07c.26-.01.28-.05.28-.24v-1.23h-.26c-.15,0-.21.01-.24.09-.04.05-.05.11-.09.21h-.09c.01-.15.04-.31.04-.46h.06c.04.06.08.06.15.06h1.12c.08,0,.1,0,.14-.06h.06c0,.11,0,.3.03.45h-.09.02Z"/>
  <path class="cls-2" d="M53.31,36.44c-.03-.08-.06-.16-.09-.21-.05-.07-.08-.08-.23-.08h-.28v1.23c0,.19.03.23.29.24v.07h-.82v-.07c.26-.01.28-.05.28-.24v-1.23h-.26c-.15,0-.21.01-.24.09-.04.05-.05.11-.09.21h-.09c.01-.15.04-.31.04-.46h.06c.04.06.08.06.15.06h1.12c.08,0,.1,0,.14-.06h.06c0,.11,0,.3.03.45h-.09.02Z"/>
  <path class="cls-2" d="M54.58,36.02c.49,0,.91.33.91.84s-.41.88-.94.88-.94-.37-.94-.84.36-.87.95-.87h.01s0-.01,0-.01ZM54.51,36.11c-.32,0-.6.24-.6.71s.28.81.69.81.6-.23.6-.71-.31-.81-.68-.81h-.01,0Z"/>
  <path class="cls-4" d="M68.28,15h28.58c.62,0,1.13.49,1.13,1.08v27.24c0,.59-.51,1.08-1.13,1.08h-28.58c-.62,0-1.13-.49-1.13-1.08v-2.71h8.81s4.04,0,4.04,0c.32,0,.48-.17.48-.5v-1.53c0-.33-.16-.5-.48-.5h-1.43s-2.61,0-2.61,0h-8.81s-4.02,0-4.02,0c-.32,0-.48-.17-.48-.5v-1.53c0-.33.16-.5.48-.5h1.43s.56,0,.56,0c.04,0,.07,0,.11,0h20.67s1.34,0,1.34,0c1.26,0,2.25-.33,2.99-.98.73-.65,1.27-1.61,1.63-2.87l2.92-11.11c.08-.33-.08-.5-.48-.5h-2.01c-.33,0-.53.16-.6.48l-2.03,8.4h-1.68v-5.78c0-.48-.05-.91-.15-1.3v-.06h-.02c-.15-.56-.41-1.03-.78-1.4-.63-.64-1.56-.96-2.78-.96h-.69c-1.32,0-2.25.49-2.8,1.46-.61-.97-1.6-1.46-2.99-1.46h-.67c-.59,0-1.11.11-1.57.34-.45.23-.78.52-.97.89h-.1v-.75c0-.32-.17-.48-.5-.48h-2.03c-.33,0-.5.16-.5.48v10.66c0,.32.17.48.5.48h2.03c.33,0,.5-.16.5-.48v-6.9c0-1.15.55-1.73,1.65-1.73h.74c.51,0,.87.1,1.09.31.22.2.32.55.32,1.04v7.29c0,.32.17.48.5.48h2.01c.35,0,.53-.16.53-.48v-6.88c0-1.17.55-1.75,1.65-1.75h.6c.51,0,.87.1,1.08.31.21.2.31.55.31,1.04v7.29c0,.32.17.48.5.48h2.03s.03,0,.04,0h1.57c-.19.76-.47,1.27-.82,1.54-.36.27-1.04.4-2.04.4h-19.07s0-16.94,0-16.94c0-.59.51-1.08,1.13-1.08Z"/>
  <path class="cls-3" d="M56.98,38.11c-.32,0-.48-.17-.48-.5v-1.53c0-.33.16-.5.48-.5h1.43s.68,0,.68,0h0s1.43,0,1.43,0c.32,0,.48.17.48.5v1.53c0,.33-.16.5-.48.5h-3.53Z"/>
  <g>
    <path class="cls-4" d="M3.71,34.2h-1.37c-.23,0-.34-.11-.34-.32v-7.18c0-.21.11-.32.34-.32h1.37c.23,0,.34.11.34.32v.51h.06c.13-.25.35-.44.65-.6.31-.15.66-.23,1.05-.23h.45c.93,0,1.6.33,2.01.98.36-.65.99-.98,1.88-.98h.47c.83,0,1.45.21,1.87.64.42.43.64,1.05.64,1.86v5c0,.21-.11.32-.34.32h-1.37c-.23,0-.34-.11-.34-.32v-4.91c0-.33-.07-.56-.21-.7-.14-.14-.38-.21-.72-.21h-.4c-.74,0-1.11.39-1.11,1.18v4.63c0,.21-.12.32-.35.32h-1.35c-.23,0-.34-.11-.34-.32v-4.91c0-.33-.07-.56-.22-.7s-.39-.21-.73-.21h-.5c-.74,0-1.11.39-1.11,1.17v4.65c0,.21-.11.32-.34.32h0ZM18.77,34.2h-1.43c-.85,0-1.5-.21-1.96-.64-.46-.43-.69-1.05-.69-1.86v-2.82c0-.81.23-1.43.69-1.86.46-.43,1.12-.64,1.96-.64h1.43c.84,0,1.49.22,1.95.65.47.43.7,1.05.7,1.85v2.82c0,.8-.23,1.41-.7,1.85-.47.43-1.12.65-1.95.65h0ZM17.64,32.52h.82c.34,0,.59-.07.73-.2.14-.13.22-.36.22-.69v-2.7c0-.33-.07-.56-.22-.69-.14-.13-.39-.2-.73-.2h-.82c-.34,0-.58.07-.72.2-.14.13-.21.36-.21.69v2.7c0,.33.07.56.21.69.14.13.38.2.72.2h0ZM22.68,26.38h1.42c.21,0,.34.11.39.32l1.38,5.76h.11l1.35-5.76c.04-.21.18-.32.4-.32h1.42c.23,0,.31.11.24.32l-2.03,7.16c-.04.22-.19.34-.43.34h-2.04c-.23,0-.37-.11-.43-.34l-2.01-7.16c-.06-.21.02-.32.24-.32h0ZM36.61,34.2h-3.56c-.85,0-1.5-.21-1.96-.64-.46-.43-.69-1.05-.69-1.86v-2.82c0-.81.23-1.43.69-1.86.46-.43,1.12-.64,1.96-.64h1.27c.85,0,1.5.21,1.96.64.46.43.69,1.05.69,1.86v1.95c0,.21-.11.32-.34.32h-4.04c-.13,0-.19.06-.19.17v.34c0,.32.07.54.22.68s.39.21.73.21h3.25c.23,0,.34.11.34.34v1.01c0,.11-.02.19-.07.24-.05.05-.14.07-.27.07h0ZM32.6,29.84h2.19c.12,0,.18-.06.18-.17v-.74c0-.33-.07-.56-.21-.69-.14-.13-.38-.2-.72-.2h-.68c-.34,0-.58.07-.72.2-.14.13-.21.36-.21.69v.74c0,.11.06.17.18.17Z"/>
    <path class="cls-3" d="M39.84,36.79h-1.03c-.21,0-.32-.11-.32-.34v-1.03c0-.22.11-.34.32-.34h.34c.68,0,1.13-.09,1.38-.27.24-.18.43-.52.56-1.03h-.85c-.2,0-.34-.11-.4-.32l-1.88-6.76c-.06-.21.02-.32.24-.32h1.43c.21,0,.35.11.4.32l1.38,5.66h.06l1.37-5.66c.04-.21.18-.32.4-.32h1.35c.27,0,.38.11.32.34l-1.96,7.48c-.24.85-.6,1.49-1.09,1.93-.49.44-1.16.66-2.01.66h0ZM50.01,34.2h-1.43c-.85,0-1.5-.21-1.96-.64-.46-.43-.69-1.05-.69-1.86v-2.82c0-.81.23-1.43.69-1.86.46-.43,1.12-.64,1.96-.64h1.43c.84,0,1.49.22,1.95.65.47.43.7,1.05.7,1.85v2.82c0,.8-.23,1.41-.7,1.85s-1.12.65-1.95.65h0ZM48.89,32.52h.82c.34,0,.59-.07.73-.2.14-.13.22-.36.22-.69v-2.7c0-.33-.07-.56-.22-.69-.14-.13-.39-.2-.73-.2h-.82c-.34,0-.58.07-.72.2-.14.13-.21.36-.21.69v2.7c0,.33.07.56.21.69.14.13.38.2.72.2h0ZM57.24,34.2h-.53c-.83,0-1.45-.21-1.87-.64s-.64-1.05-.64-1.86v-5c0-.21.11-.32.34-.32h1.37c.23,0,.34.11.34.32v4.91c0,.33.07.56.22.7s.38.21.72.21h.6c.74,0,1.11-.39,1.11-1.17v-4.65c0-.21.11-.32.34-.32h1.35c.24,0,.35.11.35.32v7.18c0,.21-.12.32-.35.32h-1.35c-.23,0-.34-.11-.34-.32v-.51h-.06c-.12.28-.33.48-.63.62s-.62.21-.95.21Z"/>
  </g>
  <path class="cls-4" d="M3.18,38.11c-.79,0-1.18-.17-1.18-.5v-1.53c0-.33.39-.5,1.18-.5h3.54s1.69,0,1.69,0h0s3.54,0,3.54,0c.79,0,1.19.17,1.19.5v1.53c0,.33-.4.5-1.19.5H3.18Z"/>
</svg>