<?xml version="1.0" encoding="UTF-8"?>
<svg id="_Слой_1" data-name="Слой 1" xmlns="http://www.w3.org/2000/svg" version="1.1" viewBox="0 0 280 280">
  <path d="M73.5,272c-.6,1-2.9,4.6-7.7,6-5.1,1.5-10.6-.3-14-3.7-3.4-3.5-3.6-7.8-3.6-9,.3-2.8,1.1-6.9,3.5-11.2,2.3-4.2,4.8-6,8.7-10.3,0,0,4.2-4.7,9.4-12.7,5.7-8.8,7.7-16.9,10-26.9,3.1-13.7,1.8-17,4.8-32.6,1.7-9,3.8-16.2,5.2-20.6.9-2,4.5-10.4,5.4-12.6,3.9-9,8.4-17.9,12.2-26.9,4-9.5,5.2-13,8.2-13.5,3.5-.5,4.7,4,11.4,6.9,1.2.5,10.6,4.4,19-.2,8.3-4.4,9.6-13.2,9.9-15,.6-4.3-.2-7.8-.9-9.8,9.1,4.9,18.2,9.9,27.4,14.8,0,13.6-3.3,23.1-6.3,29.3-3,6.2-4.6,6.6-16.4,24-10.7,15.7-13.1,20.7-11.9,26.4.6,3.1,1.7,3.6,7.9,12,11,14.9,16.6,22.5,17.7,31.5.2,1.5-.1,6.1-.7,15.4-.4,5.7-.7,11.1-1.5,17.3-1.9,15.6-2.9,23.4-7.6,25.9-4.6,2.4-11.9,1-15.8-2.7-4-3.8-3.4-8.7-2.6-25.6.8-16.9,1.2-25.4,0-28.9-3.1-8.4-6.7-7.3-17.2-23.1-7-10.5-8.6-16-11.1-15.6-2.8.4-3,7.3-6.9,25.9-2.4,11.7-3.6,17.5-5.2,21.2-3.9,9.2-7.9,12.1-19,26.9-5.5,7.4-9.7,13.6-12.2,17.5Z" fill="#231103" stroke-width="0"/>
  <ellipse cx="202.7" cy="62.8" rx="30.5" ry="28.8" fill="#231103" stroke-width="0"/>
  <path d="M181.5,43.8l50.3,43c1.8,1.3,3.9,1.5,5.2.7,1.6-1.2.9-4,.3-5.3-.9-1.9-2.1-1.9-3.7-4-.2-.2-1.6-2.3-2-5-.4-3,.8-4.3,1.5-7.8,0,0,.6-2.9,0-7.8-.9-8.2-7.5-15.2-9.7-17.4-.9-.6-17.5-11.3-32.5-4.2-4.5,2.1-7.6,5.2-9.5,7.8Z" fill="#93131b" stroke-width="0"/>
  <path d="M121.8,89.9c-5.5-13.6-12.3-22.9-16.9-28.4-6.9-8.1-12.2-11.6-13.9-12.7-5.4-3.5-11-5.7-13.1-6.5-6.1-2.3-8.3-2.2-12.8-4.4-5.1-2.4-8.6-5.5-10.7-7.7-.3-.3-6.9-6.4-4.8-12.9,1.6-5.1,7.4-7.2,8.6-7.7,7.6-2.6,13.7,1.8,35.1,11.7,18.9,8.7,18.6,7.4,23.1,10.9,9,6.9,13.8,15,20.1,25.5,4.6,7.8,7.7,14.6,9.7,19.2,5,9.2,0,19.2-7.2,21.3-5.8,1.7-13.4-1.5-17.1-8.4Z" fill="#231103" stroke-width="0"/>
</svg>