<?xml version="1.0" encoding="UTF-8"?>
<svg id="_Слой_1" data-name="Слой 1" xmlns="http://www.w3.org/2000/svg" version="1.1" viewBox="0 0 280 280">
  <path d="M92.4,265c-1.1,1.5-3,4.2-6.4,5.3-3.7,1.1-8.5,0-11.6-3.3-2.6-2.8-2.9-6.2-3-7.5,0-.2,0-.4,0-.7.3-2.3,1-5.8,2.9-9.6,2.2-4.3,5-7.2,6.9-8.9.2-.2.4-.4.6-.6,4-5.3,7.7-8.9,11.8-12.8,5.6-5.4,8.4-8.2,8.7-8.7,1.6-3.6.7-5.8-.4-15,0,0-1.2-9.6-1.5-21.5-.1-4.1-.1-9.2.3-15,0,0,0-.2,0-.3,1-7.4,1-13.4.8-17.5-.3-7.7-1.4-11-1.5-20.3,0-3.5.1-3,.4-12,.6-18.8,0-21.4,2.6-24.9,3.9-5.1,10.6-6.4,12-6.7,5.6-1,7.4,1.2,12.5-.3,3.3-1,5.5-3.1,10.1-7.5,2.6-2.5,4.1-4.4,10.9-13,1.1-1.4,2.9-3.7,4.4-5.6,1-1.2,1.1-2.9.4-4.3-1.8-3.7-4.4-8.6-7.5-14.3-6.7-12.1-9.9-16.2-8.2-20.9,1.3-3.5,5.1-6.8,9.2-7.1.9,0,2.7,0,5.2,1.1,4.5,2.2,6.4,6.1,11.5,16.8,6.2,13.2,7.3,15.6,8.4,18.2,2.5,6.1,3.8,9.1,3.9,9.9.3,3.1-1.5,5.6-5.1,10.7-2.7,3.7-5.7,6.9-5.7,6.9-.8.8-1.4,1.4-2.4,2.5-1.6,1.8-1.8,2.3-3.8,4.7-2,2.5-2.2,2.4-3.5,4.1-.7,1-.7,1.1-2.3,3.6-2,3.1-3,4.4-2.9,4.5,0,0,2.3-2.7,4.2-5.2,1.6-2.1,3.1-4.3,5.3-7.2,3.5-4.8,4.4-5.9,5.4-5.7.5.1,1.3,1.6,2.7,4.5.7,1.3,1.1,2,1.1,2.2.4,2.7-3.5,4.5-7.4,9.4,0,0-.9,1.2-3.1,4.7-5.3,8.4-1.6,22.3-4.1,41.7-.9,7.2-1.8,12.7,0,20,1.8,7.3,5.2,12.9,5.7,13.9,2.4,3.8,3.1,3.9,5.9,7.9,2.4,3.4,7.4,10.3,9.3,19.5.5,2.3.5,7,.7,16.4,0,7-.1,7,0,13.3.1,8.2.5,14.6,0,23.8-.4,7.3-1.2,12.3-4.4,13.8-.8.4-1.8.5-3.8.7-.7,0-6.2.6-8.6-.2-6.2-2.3-5.8-19.2-5.7-23.8.2-7.7,1.5-19.2-1-26.3-.6-1.7-1.4-3.1-1.6-3.6,0,0,0-.2-.1-.3-2.4-3.8-5.7-5.6-12.5-16.5-5.7-9.1-7.8-14.2-9.3-13.8-1.7.5,0,7.6,0,21.9,0,10.4,0,15.6-1.4,19.6-3.2,8.7-7.5,6.5-19.1,21-5,6.2-10.7,11.8-15.4,18.3Z" fill="#231103" stroke-width="0"/>
  <circle cx="114.8" cy="58.4" r="25.4" fill="#231103" stroke-width="0"/>
  <path d="M91.1,63.3l55-12.7c1.8-.6,3-1.9,2.9-3.2,0-1.7-2.4-2.7-3.7-2.9-1.8-.4-2.4.5-4.7.5-.2,0-2.4,0-4.5-1.1-2.3-1.2-2.7-2.7-4.9-4.9,0,0-1.9-1.9-5.7-4-6.4-3.5-14.5-2.5-17.2-2.1-.9.3-16.4,6.3-18.5,20.1-.6,4.1.2,7.8,1.1,10.4Z" fill="#93131b" stroke-width="0"/>
</svg>