<?xml version="1.0" encoding="UTF-8"?>
<svg id="_Слой_1" data-name="Слой 1" xmlns="http://www.w3.org/2000/svg" version="1.1" viewBox="0 0 280 280">
  <path d="M274.5,227.9l-82.2,14.2-1.1-6.2c27.4-4.7,54.8-9.5,82.2-14.2.3.3,1.3,1.1,1.6,2.7.4,1.8-.4,3.2-.5,3.5Z" fill="#653e00" stroke-width="0"/>
  <path d="M153.2,104.6l-39.1,6.8c-2.1-.1-3.9-1.6-4.3-3.7-.5-2.3.6-4.6,2.7-5.5,13-2.3,26-4.5,39.1-6.8l1.6,9.2Z" fill="#653e00" stroke-width="0"/>
  <rect x="156.5" y="96.9" width="6.4" height="127.2" transform="translate(-25.1 29.6) rotate(-9.8)" fill="#653e00" stroke-width="0"/>
  <ellipse cx="173.8" cy="242.1" rx="14.2" ry="15" transform="translate(-38.8 33.2) rotate(-9.8)" fill="#653e00" stroke-width="0"/>
  <circle cx="65.1" cy="49.9" r="24.4" fill="#231103" stroke-width="0"/>
  <path d="M41.9,48.7l54.2,1.6c1.8,0,3.2-1,3.5-2.2.4-1.6-1.6-3.1-2.7-3.6-1.6-.8-2.3,0-4.5-.7-.2,0-2.2-.6-3.9-2.2-1.9-1.7-1.8-3.2-3.3-5.8,0,0-1.3-2.2-4.3-5.1-5.1-4.8-12.9-5.9-15.4-6.2-.9,0-16.8,1.8-22.1,14.1-1.6,3.7-1.7,7.3-1.5,10Z" fill="#93131b" stroke-width="0"/>
  <path d="M29.7,250.6c-2.8,2.9-4.2,4.3-6.1,5.1-4,1.5-10.3,1.2-13.8-3.3-3.2-4.2-1.9-9.4-1.8-10.2.8-1.4,1.7-2.7,2.6-4.1,2.8-4.3,5.8-8.1,8.7-11.3,0,0,0,0,0,0h0s0,0,0,0c4.5-3.1,7.3-8.2,11-12.2,2-2.2,4.9-5.3,8.5-9.2-.6-7.9-.9-14.8-1.1-20.2-.1-4.8-.3-11.9,0-20.9.2-4.5.4-6.9.5-12.8,0-2.4,0-2.4.1-11.1,0-6,0-9,.1-11.6.1-6.4.3-5.9.3-10.1,0-6.3.1-9.4-.2-13.6-.2-2.5-.4-4.8-.2-8.1.2-3.2.7-5,1.1-6.1.8-2.2,1.8-3.9,2.5-5,0,0,2.6-3.9,6.9-6.6,6.6-4.1,18.9-3.9,28.8,1.3,3.1,1.6,8.3,6.4,18.7,16,3.1,2.8,5.6,5.2,7.4,6.9,1.3,1.1,3.6,2.7,6.7,2.9,2.9.2,5.1-.9,9.4-3.1,2.1-1.1,5-2.7,8.2-5,3.1-2.6,7.4-3.1,10.9-1.4,4.9,2.4,5.5,7.9,5.6,8.4.2,2.5-.5,4.3-.6,4.7-1,2.5-2.7,3.4-8.5,7.1-6.6,4.2-5.9,3.9-9,5.7-2.2,1.3-4.8,2.8-8.2,4.5-7.5,3.8-11.4,5.8-14.5,4.7-1.9-.7-3.5-2.1-6.4-4.8-2.4-2.1-3.6-3.3-5.1-5.2-1.7-2.1-4.4-4.5-4.4-4.5,5,5.2,7.1,7.3,7.1,7.4h0c7.4,7.4,8.6,8.2,10.2,8.5,1.3.2,2.4,0,3.7-.4,2.2-.5,3.5-1.4,5.7-2.8,3.1-1.9,2.2-1,7.6-4.1,2.6-1.5,4.5-2.7,6.9-4.1,6.3-3.9,7.6-4.9,9.9-4.7.7,0,2.9.4,4.5,2.1,1.6,1.8,2,4.5,1.2,6.5-.6,1.5-1.8,2.4-4.1,4.1-1.8,1.4-2.6,1.7-4.8,3.1-4.4,2.8-5,3.8-9.7,6.6-3.8,2.3-6.6,3.7-10,5.5-6.4,3.3-7.7,3.5-8.7,3.6-.7,0-5.3.4-9.4-2.5-2-1.4-3.1-3-5.1-5.9-3.3-5-4-7.8-4.9-7.6-.4,0-1,1-.8,11,.1,7.9.2,11.9,1.3,14.2,1.6,3.5,4.3,5.9,8.5,9.7,2,1.8,3.5,2.9,5.8,5.4,2.4,2.7,3.6,4,4.3,5.8,1.1,2.9.3,4.7-.1,11.6,0,.1-.1,2.7-.2,7.7,0,5.5,0,11-.1,16.5,0,3.9,0,8.6,0,17.9,0,13.7.3,16.6-2.1,19-3.7,3.9-11.7,4.7-16,1.4-.3-.3-.5-.5-.8-.7-3.8-3.9-3.8-9.6-3.8-12.2,0-22.7-.3-18.7,0-24.3,0-.4.2-4.8.5-13.5.2-6.2.3-9.4-1.4-12.9-.5-1.1-1.8-2.7-4.2-5.9-1.6-2.2-2.6-3.4-3.2-4.2-1.4-1.7-2.5-2.9-3.3-3.7-1.6-1.7-2.7-2.8-3.5-3.6-1.5-1.4-2.1-1.8-2.4-2-.9-.6-1.7-1-3-1.6-1.4-.7-2.1-1-2.4-.9-1.7.5-1,7-1,10.6s.3,4.1.7,17.3c.6,16.5-1.4,20-2.8,21.7-.9,1.1-1.1,1-5.1,5.3-1.2,1.3-4.1,4.4-7.1,8-1.8,2.2-4,5.1-8.4,10.8-3.7,5-5.1,6.9-7.8,9.6Z" fill="#231103" stroke-width="0"/>
</svg>