<?xml version="1.0" encoding="UTF-8"?>
<svg id="_Слой_1" data-name="Слой 1" xmlns="http://www.w3.org/2000/svg" version="1.1" viewBox="0 0 560 280">
  <g>
    <path d="M155.8,21h195.9c9,0,16.3,7.3,16.3,16.3v142.4h-230.1V38.9c0-9.9,8-17.9,17.9-17.9Z" fill="#d2d5c4" stroke-width="0"/>
    <path d="M493.2,179.7h-124.8s0-126.1,0-126.1c0-2.1,1.7-3.8,3.8-3.7,20.5.7,41.1,1.4,61.6,2.1,1.5,0,2.9.6,4,1.7,9.6,9,19.8,19.4,30.1,31.3,10,11.5,18.6,22.7,26.1,33.3,1.9,2.6,2.9,5.7,3,9,.4,15.8.8,31.6,1.2,47.4,0,2.8-2.2,5.1-5,5.1Z" fill="#231103" stroke-width="0"/>
    <rect x="130.2" y="177.5" width="380.1" height="28.7" rx="7" ry="7" fill="#3f270f" stroke-width="0"/>
    <circle cx="487.8" cy="190.9" r="10.4" fill="#b4611d" stroke-width="0"/>
    <path d="M450.6,111.7h-70.7v-48.9c0-1.5,1.2-2.6,2.7-2.7,11.4,0,22.8,0,34.2,0,3.4,0,6.9,0,11.9,1.2,6.2,1.4,9.7,3.5,10.8,4.1,2.5,1.5,4.5,3.3,5.3,4,1.9,1.7,3.3,3.2,4.1,4.1,1.7,1.9,2.3,2.9,4.2,5.2,1.1,1.4,2.7,3.4,4.9,5.8,1.7,2.4,3.1,4.5,4.2,6.1,1.7,2.5,2.6,4.1,4.3,6.8,2.9,4.6,3.2,5.2,3.4,6.3,0,.3.6,4.5-2,6.8-1.3,1.2-2.9,1.3-7.9,1.4-5.1,0-7.7-.2-9.2-.2Z" fill="#d2d5c4" stroke-width="0"/>
    <rect x="380.3" y="131.4" width="28.2" height="9.6" rx="2.3" ry="2.3" fill="#cfd0bf" stroke-width="0"/>
    <path d="M357.6,29.1h-209.6c-1.4,0-2.5,1.1-2.5,2.5h0v137.4c0,1.4,1.1,2.5,2.5,2.5h2c1.4,0,2.5-1.1,2.5-2.5V36.6c0-.2.1-.3.3-.3h204.8c1.6,0,2.9-1.3,2.9-2.9v-1.5c0-1.6-1.3-2.9-2.9-2.9Z" fill="#a7aa9b" stroke-width="0"/>
    <path d="M436.4,63.6c-.2-2.1-3.1-3.8-5.2-3.8h-48.9c-1.6,0-2.8,1.3-2.8,2.8h0v49.2h3.5v-48.2h53.4Z" fill="#a7aa9b" stroke-width="0"/>
    <path d="M498.9,170c-9.6.4-5.4.2-15.1.7-.9-9.9-1.7-19.9-2.6-29.8,0-.9.6-1.6,1.5-1.6h16.2s0,0,0,0v30.7Z" fill="#d2d5c4" stroke-width="0"/>
    <path d="M487.4,170.9c-.8,0-1.7,0-2.5,0-.6.1-1.3-.1-1.6-.6-.3-.5-.3-1-.3-1.2-.6-9.8-1.2-19.5-1.7-29.3.8-.5,1.4-.7,1.9-.8,1-.3,1.8-.2,2.3-.2.6,0,1,0,1.9.2.8.1,1.7.3,2,.4,3,.8,4.4,8.9,4.6,10.3.8,4.9.3,8.2-.8,14.8-.7,4.1-1.8,5-2.7,5.5-1.1.7-2.3.9-3.1.9Z" fill="#c35b1f" stroke-width="0"/>
    <g>
      <circle cx="416.9" cy="210.8" r="42.8" fill="#231103" stroke-width="0"/>
      <circle cx="416.9" cy="210.8" r="25.5" fill="#dcdecf" stroke-width="0"/>
      <circle cx="416.9" cy="210.8" r="8.7" fill="#110b00" stroke-width="0"/>
      <circle cx="428.2" cy="221.6" r="4.2" fill="#110b00" stroke-width="0"/>
      <circle cx="416.5" cy="193.7" r="4.2" fill="#110b00" stroke-width="0"/>
      <circle cx="427.6" cy="198.5" r="4.2" fill="#110b00" stroke-width="0"/>
      <circle cx="433.3" cy="210.3" r="4.2" fill="#110b00" stroke-width="0"/>
      <circle cx="399.9" cy="210" r="4.2" fill="#110b00" stroke-width="0"/>
      <circle cx="404.5" cy="198.5" r="4.2" fill="#110b00" stroke-width="0"/>
      <circle cx="416.5" cy="226.4" r="4.2" fill="#110b00" stroke-width="0"/>
      <circle cx="405.3" cy="221.3" r="4.2" fill="#110b00" stroke-width="0"/>
    </g>
    <g>
      <circle cx="208.9" cy="209.8" r="42.8" fill="#231103" stroke-width="0"/>
      <circle cx="208.9" cy="209.8" r="25.5" fill="#dcdecf" stroke-width="0"/>
      <circle cx="208.9" cy="209.8" r="8.7" fill="#110b00" stroke-width="0"/>
      <circle cx="220.2" cy="220.6" r="4.2" fill="#110b00" stroke-width="0"/>
      <circle cx="208.6" cy="192.7" r="4.2" fill="#110b00" stroke-width="0"/>
      <circle cx="219.7" cy="197.5" r="4.2" fill="#110b00" stroke-width="0"/>
      <circle cx="225.4" cy="209.3" r="4.2" fill="#110b00" stroke-width="0"/>
      <circle cx="192" cy="209" r="4.2" fill="#110b00" stroke-width="0"/>
      <circle cx="196.6" cy="197.5" r="4.2" fill="#110b00" stroke-width="0"/>
      <circle cx="208.6" cy="225.4" r="4.2" fill="#110b00" stroke-width="0"/>
      <circle cx="197.4" cy="220.3" r="4.2" fill="#110b00" stroke-width="0"/>
    </g>
  </g>
  <g>
    <g>
      <path d="M140,139.1c-8.6,5.4-17.1,10.7-25.7,16.1l-39.5-76.7,63.2-33.1c1.2,1.6,2.6,4.1,3.1,7.4.6,3.5-.5,4.6-1.1,10.7-.3,2.3-.3,5.6-.4,12.1,0,1.7,0,2,0,9.2,0,10.5,0,11,0,12.9.1,6.7.5,6.4.7,12.6.1,4.9,0,6.5-.2,14.7,0,3.3,0,8.2,0,14.2Z" fill="#c79e69" stroke-width="0"/>
      <path d="M107,59.5l-6.3,3.3c-3.1,1.6-4.3,5.5-2.7,8.6l6,11.6c.6,1.2,2.1,1.6,3.3,1l13.3-7c1.2-.6,1.6-2.1,1-3.2l-5.9-11.5c-1.6-3.1-5.5-4.4-8.6-2.7Z" fill="#643d03" stroke-width="0"/>
    </g>
    <path d="M62.9,256.1c-.7.9-1.8,2.5-3.8,3.2-2.2.7-5.1,0-6.9-2-1.5-1.7-1.8-3.7-1.8-4.5,0-.1,0-.3,0-.4.2-1.4.6-3.5,1.7-5.7,1.3-2.6,3-4.3,4.1-5.3.1-.1.2-.2.3-.4,2.4-3.2,4.6-5.3,7-7.7,3.4-3.2,5-4.9,5.2-5.2,1-2.1.4-3.5-.2-9,0,0-.7-5.7-.9-12.9,0-2.5,0-5.5.2-9,0,0,0-.1,0-.2.6-4.4.6-8,.5-10.5-.2-4.6-.8-6.6-.9-12.2,0-2.1,0-1.8.2-7.2.4-11.3,0-12.8,1.6-14.9,2.3-3,6.4-3.9,7.2-4,3.3-.6,4.5.7,7.5-.2,2-.6,3.3-1.9,6-4.5,1.6-1.5,2.4-2.6,6.5-7.8.7-.8,1.7-2.2,2.6-3.4.6-.7.7-1.8.3-2.6-1.1-2.2-2.6-5.1-4.5-8.5-4-7.3-5.9-9.7-4.9-12.5.8-2.1,3-4.1,5.5-4.3.6,0,1.6,0,3.1.7,2.7,1.3,3.9,3.7,6.9,10.1,3.7,7.9,4.4,9.4,5,10.9,1.5,3.6,2.3,5.4,2.3,5.9.2,1.9-.9,3.4-3,6.4-1.6,2.2-3.4,4.1-3.4,4.1-.5.5-.8.8-1.5,1.5-1,1.1-1.1,1.4-2.3,2.8-1.2,1.5-1.3,1.5-2.1,2.5-.4.6-.4.7-1.4,2.1-1.2,1.8-1.8,2.6-1.7,2.7,0,0,1.4-1.6,2.5-3.1.9-1.2,1.9-2.5,3.2-4.3,2.1-2.8,2.7-3.5,3.2-3.4.3,0,.8.9,1.6,2.7.4.8.6,1.2.7,1.3.2,1.6-2.1,2.7-4.5,5.6,0,0-.6.7-1.9,2.8-3.1,5-1,13.3-2.4,25-.5,4.3-1.1,7.6,0,11.9,1.1,4.4,3.1,7.7,3.4,8.3,1.4,2.3,1.9,2.4,3.6,4.7,1.4,2,4.4,6.2,5.6,11.7.3,1.4.3,4.2.4,9.8,0,4.2,0,4.2,0,8,0,4.9.3,8.7,0,14.3-.3,4.4-.7,7.3-2.6,8.3-.5.2-1.1.3-2.2.4-.4,0-3.7.4-5.2-.1-3.7-1.4-3.5-11.5-3.4-14.3.1-4.6.9-11.5-.6-15.8-.4-1-.8-1.9-1-2.1,0,0,0-.1,0-.2-1.4-2.3-3.4-3.3-7.5-9.9-3.4-5.4-4.7-8.5-5.5-8.2-1,.3,0,4.6,0,13.1,0,6.2,0,9.4-.9,11.7-1.9,5.2-4.5,3.9-11.4,12.5-3,3.7-6.4,7.1-9.2,10.9Z" fill="#231103" stroke-width="0"/>
    <circle cx="76.3" cy="132.4" r="15.2" fill="#231103" stroke-width="0"/>
    <path d="M62.1,135.3l32.9-7.6c1.1-.3,1.8-1.1,1.8-1.9,0-1-1.5-1.6-2.2-1.7-1.1-.2-1.4.3-2.8.3-.1,0-1.4,0-2.7-.7-1.4-.7-1.6-1.6-2.9-3,0,0-1.1-1.1-3.4-2.4-3.8-2.1-8.7-1.5-10.3-1.3-.5.2-9.8,3.8-11,12-.4,2.5.1,4.7.7,6.2Z" fill="#93131b" stroke-width="0"/>
  </g>
</svg>